<mxfile host="app.diagrams.net" agent="Mozilla/5.0 (X11; Linux x86_64; rv:137.0) Gecko/20100101 Firefox/137.0" version="26.2.5">
  <diagram name="Page-1" id="rd5WgjaN5qs2F5G4zhtr">
    <mxGraphModel dx="627" dy="899" grid="1" gridSize="10" guides="1" tooltips="1" connect="1" arrows="1" fold="1" page="1" pageScale="1" pageWidth="850" pageHeight="1100" math="0" shadow="0">
      <root>
        <mxCell id="0" />
        <mxCell id="1" parent="0" />
        <mxCell id="i1IyLrbdU4EnLdiSXplg-476" style="edgeStyle=orthogonalEdgeStyle;rounded=0;orthogonalLoop=1;jettySize=auto;html=1;entryX=0;entryY=0.5;entryDx=0;entryDy=0;endArrow=none;startFill=0;exitX=0.705;exitY=0.004;exitDx=0;exitDy=0;exitPerimeter=0;" parent="1" source="i1IyLrbdU4EnLdiSXplg-362" target="i1IyLrbdU4EnLdiSXplg-475" edge="1">
          <mxGeometry relative="1" as="geometry" />
        </mxCell>
        <mxCell id="2QBdlu2DVjJhpSTRe-wy-66" style="edgeStyle=orthogonalEdgeStyle;rounded=0;orthogonalLoop=1;jettySize=auto;html=1;entryX=0.5;entryY=0;entryDx=0;entryDy=0;endArrow=none;startFill=0;exitX=0.25;exitY=1;exitDx=0;exitDy=0;" edge="1" parent="1" source="i1IyLrbdU4EnLdiSXplg-362" target="2QBdlu2DVjJhpSTRe-wy-65">
          <mxGeometry relative="1" as="geometry" />
        </mxCell>
        <mxCell id="i1IyLrbdU4EnLdiSXplg-362" value="Artista" style="rounded=0;whiteSpace=wrap;html=1;" parent="1" vertex="1">
          <mxGeometry x="1619" y="1129.9996189432343" width="200" height="60" as="geometry" />
        </mxCell>
        <mxCell id="i1IyLrbdU4EnLdiSXplg-380" value="" style="group;rotation=0;" parent="1" vertex="1" connectable="0">
          <mxGeometry x="1706" y="1102.0011431703006" width="8" height="28" as="geometry" />
        </mxCell>
        <mxCell id="i1IyLrbdU4EnLdiSXplg-381" value="" style="ellipse;whiteSpace=wrap;html=1;aspect=fixed;fillColor=light-dark(#FFFFFF,#FFFFFF);rotation=0;" parent="i1IyLrbdU4EnLdiSXplg-380" vertex="1">
          <mxGeometry width="8" height="8" as="geometry" />
        </mxCell>
        <mxCell id="i1IyLrbdU4EnLdiSXplg-382" style="edgeStyle=orthogonalEdgeStyle;rounded=0;orthogonalLoop=1;jettySize=auto;html=1;endArrow=none;startFill=0;" parent="i1IyLrbdU4EnLdiSXplg-380" edge="1">
          <mxGeometry relative="1" as="geometry">
            <mxPoint x="4" y="28" as="targetPoint" />
            <mxPoint x="4" y="8" as="sourcePoint" />
          </mxGeometry>
        </mxCell>
        <mxCell id="i1IyLrbdU4EnLdiSXplg-387" value="&lt;font style=&quot;font-size: 8px;&quot;&gt;DNI&lt;/font&gt;" style="text;html=1;align=center;verticalAlign=middle;resizable=0;points=[];autosize=1;strokeColor=none;fillColor=none;rotation=-60;" parent="1" vertex="1">
          <mxGeometry x="1692" y="1075.0011431703008" width="40" height="30" as="geometry" />
        </mxCell>
        <mxCell id="i1IyLrbdU4EnLdiSXplg-388" value="" style="group;rotation=0;" parent="1" vertex="1" connectable="0">
          <mxGeometry x="1726" y="1102.0011431703006" width="8" height="28" as="geometry" />
        </mxCell>
        <mxCell id="i1IyLrbdU4EnLdiSXplg-389" value="" style="ellipse;whiteSpace=wrap;html=1;aspect=fixed;fillColor=light-dark(#FFFFFF,transparent);rotation=0;" parent="i1IyLrbdU4EnLdiSXplg-388" vertex="1">
          <mxGeometry width="8" height="8" as="geometry" />
        </mxCell>
        <mxCell id="i1IyLrbdU4EnLdiSXplg-390" style="edgeStyle=orthogonalEdgeStyle;rounded=0;orthogonalLoop=1;jettySize=auto;html=1;endArrow=none;startFill=0;" parent="i1IyLrbdU4EnLdiSXplg-388" edge="1">
          <mxGeometry relative="1" as="geometry">
            <mxPoint x="4" y="28" as="targetPoint" />
            <mxPoint x="4" y="8" as="sourcePoint" />
          </mxGeometry>
        </mxCell>
        <mxCell id="i1IyLrbdU4EnLdiSXplg-457" value="&lt;font style=&quot;font-size: 8px;&quot;&gt;web(0,1)&lt;/font&gt;" style="text;html=1;align=center;verticalAlign=middle;resizable=0;points=[];autosize=1;strokeColor=none;fillColor=none;rotation=-60;" parent="1" vertex="1">
          <mxGeometry x="1706" y="1065.0011431703008" width="60" height="30" as="geometry" />
        </mxCell>
        <mxCell id="i1IyLrbdU4EnLdiSXplg-458" value="" style="group;rotation=0;" parent="1" vertex="1" connectable="0">
          <mxGeometry x="1626" y="1102.0011431703006" width="8" height="28" as="geometry" />
        </mxCell>
        <mxCell id="i1IyLrbdU4EnLdiSXplg-459" value="" style="ellipse;whiteSpace=wrap;html=1;aspect=fixed;fillColor=light-dark(#FFFFFF,transparent);rotation=0;" parent="i1IyLrbdU4EnLdiSXplg-458" vertex="1">
          <mxGeometry width="8" height="8" as="geometry" />
        </mxCell>
        <mxCell id="i1IyLrbdU4EnLdiSXplg-460" style="edgeStyle=orthogonalEdgeStyle;rounded=0;orthogonalLoop=1;jettySize=auto;html=1;endArrow=none;startFill=0;" parent="i1IyLrbdU4EnLdiSXplg-458" edge="1">
          <mxGeometry relative="1" as="geometry">
            <mxPoint x="4" y="28" as="targetPoint" />
            <mxPoint x="4" y="8" as="sourcePoint" />
          </mxGeometry>
        </mxCell>
        <mxCell id="2QBdlu2DVjJhpSTRe-wy-1" style="edgeStyle=orthogonalEdgeStyle;rounded=0;orthogonalLoop=1;jettySize=auto;html=1;entryX=0.5;entryY=0;entryDx=0;entryDy=0;endArrow=none;startFill=0;" edge="1" parent="1" source="i1IyLrbdU4EnLdiSXplg-474" target="i1IyLrbdU4EnLdiSXplg-475">
          <mxGeometry relative="1" as="geometry" />
        </mxCell>
        <mxCell id="i1IyLrbdU4EnLdiSXplg-474" value="Telefono" style="rounded=0;whiteSpace=wrap;html=1;" parent="1" vertex="1">
          <mxGeometry x="1840" y="946" width="200" height="60" as="geometry" />
        </mxCell>
        <mxCell id="i1IyLrbdU4EnLdiSXplg-475" value="tiene" style="rhombus;whiteSpace=wrap;html=1;" parent="1" vertex="1">
          <mxGeometry x="1900" y="1064" width="80" height="80" as="geometry" />
        </mxCell>
        <mxCell id="i1IyLrbdU4EnLdiSXplg-478" value="(1,n)" style="text;html=1;align=center;verticalAlign=middle;resizable=0;points=[];autosize=1;strokeColor=none;fillColor=none;" parent="1" vertex="1">
          <mxGeometry x="1762" y="1072" width="60" height="30" as="geometry" />
        </mxCell>
        <mxCell id="i1IyLrbdU4EnLdiSXplg-479" value="(1,1)" style="text;html=1;align=center;verticalAlign=middle;resizable=0;points=[];autosize=1;strokeColor=none;fillColor=none;" parent="1" vertex="1">
          <mxGeometry x="1940" y="1007" width="60" height="30" as="geometry" />
        </mxCell>
        <mxCell id="i1IyLrbdU4EnLdiSXplg-480" value="" style="group;rotation=0;" parent="1" vertex="1" connectable="0">
          <mxGeometry x="1936" y="918.0011431703006" width="8" height="28" as="geometry" />
        </mxCell>
        <mxCell id="i1IyLrbdU4EnLdiSXplg-481" value="" style="ellipse;whiteSpace=wrap;html=1;aspect=fixed;fillColor=light-dark(#FFFFFF,#FFFFFF);rotation=0;" parent="i1IyLrbdU4EnLdiSXplg-480" vertex="1">
          <mxGeometry width="8" height="8" as="geometry" />
        </mxCell>
        <mxCell id="i1IyLrbdU4EnLdiSXplg-482" style="edgeStyle=orthogonalEdgeStyle;rounded=0;orthogonalLoop=1;jettySize=auto;html=1;endArrow=none;startFill=0;" parent="i1IyLrbdU4EnLdiSXplg-480" edge="1">
          <mxGeometry relative="1" as="geometry">
            <mxPoint x="4" y="28" as="targetPoint" />
            <mxPoint x="4" y="8" as="sourcePoint" />
          </mxGeometry>
        </mxCell>
        <mxCell id="i1IyLrbdU4EnLdiSXplg-483" value="&lt;font style=&quot;font-size: 8px;&quot;&gt;telefono&lt;/font&gt;" style="text;html=1;align=center;verticalAlign=middle;resizable=0;points=[];autosize=1;strokeColor=none;fillColor=none;rotation=-60;" parent="1" vertex="1">
          <mxGeometry x="1916" y="880.0011431703008" width="60" height="30" as="geometry" />
        </mxCell>
        <mxCell id="2QBdlu2DVjJhpSTRe-wy-2" value="" style="curved=1;endArrow=none;html=1;rounded=0;startFill=0;entryX=0;entryY=0.5;entryDx=0;entryDy=0;" edge="1" parent="1" target="2QBdlu2DVjJhpSTRe-wy-4">
          <mxGeometry width="50" height="50" relative="1" as="geometry">
            <mxPoint x="1825" y="1104" as="sourcePoint" />
            <mxPoint x="1993" y="935" as="targetPoint" />
            <Array as="points">
              <mxPoint x="1830" y="1030" />
              <mxPoint x="1830" y="960" />
              <mxPoint x="1840" y="930" />
            </Array>
          </mxGeometry>
        </mxCell>
        <mxCell id="2QBdlu2DVjJhpSTRe-wy-3" value="" style="group;rotation=0;" vertex="1" connectable="0" parent="1">
          <mxGeometry x="1963" y="931.0011431703006" width="8" height="28" as="geometry" />
        </mxCell>
        <mxCell id="2QBdlu2DVjJhpSTRe-wy-4" value="" style="ellipse;whiteSpace=wrap;html=1;aspect=fixed;fillColor=light-dark(#FFFFFF,#FFFFFF);rotation=0;" vertex="1" parent="2QBdlu2DVjJhpSTRe-wy-3">
          <mxGeometry width="8" height="8" as="geometry" />
        </mxCell>
        <mxCell id="2QBdlu2DVjJhpSTRe-wy-6" value="actua" style="rhombus;whiteSpace=wrap;html=1;" vertex="1" parent="1">
          <mxGeometry x="2040" y="1263" width="80" height="80" as="geometry" />
        </mxCell>
        <mxCell id="2QBdlu2DVjJhpSTRe-wy-24" value="(0,n)" style="text;html=1;align=center;verticalAlign=middle;resizable=0;points=[];autosize=1;strokeColor=none;fillColor=none;" vertex="1" parent="1">
          <mxGeometry x="1981" y="1116" width="60" height="30" as="geometry" />
        </mxCell>
        <mxCell id="2QBdlu2DVjJhpSTRe-wy-64" value="Animador" style="rounded=0;whiteSpace=wrap;html=1;" vertex="1" parent="1">
          <mxGeometry x="1479" y="1369.9996189432343" width="200" height="60" as="geometry" />
        </mxCell>
        <mxCell id="2QBdlu2DVjJhpSTRe-wy-67" style="edgeStyle=orthogonalEdgeStyle;rounded=0;orthogonalLoop=1;jettySize=auto;html=1;entryX=0.5;entryY=0;entryDx=0;entryDy=0;exitX=0.5;exitY=1;exitDx=0;exitDy=0;endArrow=none;startFill=0;" edge="1" parent="1" source="2QBdlu2DVjJhpSTRe-wy-65" target="2QBdlu2DVjJhpSTRe-wy-64">
          <mxGeometry relative="1" as="geometry">
            <mxPoint x="1709" y="1319.9999999999998" as="sourcePoint" />
          </mxGeometry>
        </mxCell>
        <mxCell id="2QBdlu2DVjJhpSTRe-wy-65" value="es_un" style="rhombus;whiteSpace=wrap;html=1;" vertex="1" parent="1">
          <mxGeometry x="1539" y="1250" width="80" height="80" as="geometry" />
        </mxCell>
        <mxCell id="2QBdlu2DVjJhpSTRe-wy-68" value="(0,1)" style="text;html=1;align=center;verticalAlign=middle;resizable=0;points=[];autosize=1;strokeColor=none;fillColor=none;" vertex="1" parent="1">
          <mxGeometry x="1608" y="1190" width="60" height="30" as="geometry" />
        </mxCell>
        <mxCell id="2QBdlu2DVjJhpSTRe-wy-69" value="(1,1)" style="text;html=1;align=center;verticalAlign=middle;resizable=0;points=[];autosize=1;strokeColor=none;fillColor=none;" vertex="1" parent="1">
          <mxGeometry x="1800" y="1340" width="60" height="30" as="geometry" />
        </mxCell>
        <mxCell id="2QBdlu2DVjJhpSTRe-wy-71" value="" style="curved=1;endArrow=none;html=1;rounded=0;startFill=0;entryX=0.258;entryY=0.46;entryDx=0;entryDy=0;entryPerimeter=0;" edge="1" parent="1" target="2QBdlu2DVjJhpSTRe-wy-73">
          <mxGeometry width="50" height="50" relative="1" as="geometry">
            <mxPoint x="1579" y="1231" as="sourcePoint" />
            <mxPoint x="1625" y="1342" as="targetPoint" />
            <Array as="points">
              <mxPoint x="1540" y="1250" />
              <mxPoint x="1517.23" y="1298.3400000000001" />
              <mxPoint x="1560" y="1340" />
              <mxPoint x="1600" y="1340" />
            </Array>
          </mxGeometry>
        </mxCell>
        <mxCell id="2QBdlu2DVjJhpSTRe-wy-73" value="" style="ellipse;whiteSpace=wrap;html=1;aspect=fixed;fillColor=light-dark(#FFFFFF,#FFFFFF);rotation=0;" vertex="1" parent="1">
          <mxGeometry x="1629" y="1337.0011431703006" width="8" height="8" as="geometry" />
        </mxCell>
        <mxCell id="2QBdlu2DVjJhpSTRe-wy-123" value="&lt;font style=&quot;font-size: 8px;&quot;&gt;calle&lt;/font&gt;" style="text;html=1;align=center;verticalAlign=middle;resizable=0;points=[];autosize=1;strokeColor=none;fillColor=none;rotation=-60;" vertex="1" parent="1">
          <mxGeometry x="1608" y="1072.0011431703008" width="50" height="30" as="geometry" />
        </mxCell>
        <mxCell id="2QBdlu2DVjJhpSTRe-wy-124" value="" style="group;rotation=0;" vertex="1" connectable="0" parent="1">
          <mxGeometry x="1646" y="1102.0011431703006" width="8" height="28" as="geometry" />
        </mxCell>
        <mxCell id="2QBdlu2DVjJhpSTRe-wy-125" value="" style="ellipse;whiteSpace=wrap;html=1;aspect=fixed;fillColor=light-dark(#FFFFFF,transparent);rotation=0;" vertex="1" parent="2QBdlu2DVjJhpSTRe-wy-124">
          <mxGeometry width="8" height="8" as="geometry" />
        </mxCell>
        <mxCell id="2QBdlu2DVjJhpSTRe-wy-126" style="edgeStyle=orthogonalEdgeStyle;rounded=0;orthogonalLoop=1;jettySize=auto;html=1;endArrow=none;startFill=0;" edge="1" parent="2QBdlu2DVjJhpSTRe-wy-124">
          <mxGeometry relative="1" as="geometry">
            <mxPoint x="4" y="28" as="targetPoint" />
            <mxPoint x="4" y="8" as="sourcePoint" />
          </mxGeometry>
        </mxCell>
        <mxCell id="2QBdlu2DVjJhpSTRe-wy-127" value="&lt;font style=&quot;font-size: 8px;&quot;&gt;numero&lt;/font&gt;" style="text;html=1;align=center;verticalAlign=middle;resizable=0;points=[];autosize=1;strokeColor=none;fillColor=none;rotation=-60;" vertex="1" parent="1">
          <mxGeometry x="1629" y="1070.0011431703008" width="50" height="30" as="geometry" />
        </mxCell>
        <mxCell id="2QBdlu2DVjJhpSTRe-wy-128" value="" style="group;rotation=0;" vertex="1" connectable="0" parent="1">
          <mxGeometry x="1666" y="1102.0011431703006" width="8" height="28" as="geometry" />
        </mxCell>
        <mxCell id="2QBdlu2DVjJhpSTRe-wy-129" value="" style="ellipse;whiteSpace=wrap;html=1;aspect=fixed;fillColor=light-dark(#FFFFFF,transparent);rotation=0;" vertex="1" parent="2QBdlu2DVjJhpSTRe-wy-128">
          <mxGeometry width="8" height="8" as="geometry" />
        </mxCell>
        <mxCell id="2QBdlu2DVjJhpSTRe-wy-130" style="edgeStyle=orthogonalEdgeStyle;rounded=0;orthogonalLoop=1;jettySize=auto;html=1;endArrow=none;startFill=0;" edge="1" parent="2QBdlu2DVjJhpSTRe-wy-128">
          <mxGeometry relative="1" as="geometry">
            <mxPoint x="4" y="28" as="targetPoint" />
            <mxPoint x="4" y="8" as="sourcePoint" />
          </mxGeometry>
        </mxCell>
        <mxCell id="2QBdlu2DVjJhpSTRe-wy-131" value="" style="group;rotation=0;" vertex="1" connectable="0" parent="1">
          <mxGeometry x="1686" y="1102.0011431703006" width="8" height="28" as="geometry" />
        </mxCell>
        <mxCell id="2QBdlu2DVjJhpSTRe-wy-132" value="" style="ellipse;whiteSpace=wrap;html=1;aspect=fixed;fillColor=light-dark(#FFFFFF,transparent);rotation=0;" vertex="1" parent="2QBdlu2DVjJhpSTRe-wy-131">
          <mxGeometry width="8" height="8" as="geometry" />
        </mxCell>
        <mxCell id="2QBdlu2DVjJhpSTRe-wy-133" style="edgeStyle=orthogonalEdgeStyle;rounded=0;orthogonalLoop=1;jettySize=auto;html=1;endArrow=none;startFill=0;" edge="1" parent="2QBdlu2DVjJhpSTRe-wy-131">
          <mxGeometry relative="1" as="geometry">
            <mxPoint x="4" y="28" as="targetPoint" />
            <mxPoint x="4" y="8" as="sourcePoint" />
          </mxGeometry>
        </mxCell>
        <mxCell id="2QBdlu2DVjJhpSTRe-wy-135" value="&lt;font style=&quot;font-size: 8px;&quot;&gt;piso(0,1)&lt;/font&gt;" style="text;html=1;align=center;verticalAlign=middle;resizable=0;points=[];autosize=1;strokeColor=none;fillColor=none;rotation=-60;" vertex="1" parent="1">
          <mxGeometry x="1642" y="1063.0011431703008" width="70" height="30" as="geometry" />
        </mxCell>
        <mxCell id="2QBdlu2DVjJhpSTRe-wy-136" value="&lt;font style=&quot;font-size: 8px;&quot;&gt;dpto(0,1)&lt;/font&gt;" style="text;html=1;align=center;verticalAlign=middle;resizable=0;points=[];autosize=1;strokeColor=none;fillColor=none;rotation=-60;" vertex="1" parent="1">
          <mxGeometry x="1662" y="1063.0011431703008" width="70" height="30" as="geometry" />
        </mxCell>
        <mxCell id="2QBdlu2DVjJhpSTRe-wy-137" value="" style="group;rotation=-90;" vertex="1" connectable="0" parent="1">
          <mxGeometry x="1601" y="1126.0011431703006" width="8" height="28" as="geometry" />
        </mxCell>
        <mxCell id="2QBdlu2DVjJhpSTRe-wy-138" value="" style="ellipse;whiteSpace=wrap;html=1;aspect=fixed;fillColor=light-dark(#FFFFFF,transparent);rotation=-90;" vertex="1" parent="2QBdlu2DVjJhpSTRe-wy-137">
          <mxGeometry x="-10" y="10" width="8" height="8" as="geometry" />
        </mxCell>
        <mxCell id="2QBdlu2DVjJhpSTRe-wy-139" style="edgeStyle=orthogonalEdgeStyle;rounded=0;orthogonalLoop=1;jettySize=auto;html=1;endArrow=none;startFill=0;" edge="1" parent="2QBdlu2DVjJhpSTRe-wy-137">
          <mxGeometry relative="1" as="geometry">
            <mxPoint x="18" y="14" as="targetPoint" />
            <mxPoint x="-2" y="14" as="sourcePoint" />
          </mxGeometry>
        </mxCell>
        <mxCell id="2QBdlu2DVjJhpSTRe-wy-140" value="" style="group;rotation=-90;" vertex="1" connectable="0" parent="1">
          <mxGeometry x="1601" y="1146.0011431703006" width="8" height="28" as="geometry" />
        </mxCell>
        <mxCell id="2QBdlu2DVjJhpSTRe-wy-141" value="" style="ellipse;whiteSpace=wrap;html=1;aspect=fixed;fillColor=light-dark(#FFFFFF,transparent);rotation=-90;" vertex="1" parent="2QBdlu2DVjJhpSTRe-wy-140">
          <mxGeometry x="-10" y="10" width="8" height="8" as="geometry" />
        </mxCell>
        <mxCell id="2QBdlu2DVjJhpSTRe-wy-142" style="edgeStyle=orthogonalEdgeStyle;rounded=0;orthogonalLoop=1;jettySize=auto;html=1;endArrow=none;startFill=0;" edge="1" parent="2QBdlu2DVjJhpSTRe-wy-140">
          <mxGeometry relative="1" as="geometry">
            <mxPoint x="18" y="14" as="targetPoint" />
            <mxPoint x="-2" y="14" as="sourcePoint" />
          </mxGeometry>
        </mxCell>
        <mxCell id="2QBdlu2DVjJhpSTRe-wy-143" value="&lt;font style=&quot;font-size: 8px;&quot;&gt;nombre&lt;/font&gt;" style="text;html=1;align=center;verticalAlign=middle;resizable=0;points=[];autosize=1;strokeColor=none;fillColor=none;rotation=0;" vertex="1" parent="1">
          <mxGeometry x="1548" y="1122.0011431703008" width="50" height="30" as="geometry" />
        </mxCell>
        <mxCell id="2QBdlu2DVjJhpSTRe-wy-144" value="&lt;font style=&quot;font-size: 8px;&quot;&gt;apellido&lt;/font&gt;" style="text;html=1;align=center;verticalAlign=middle;resizable=0;points=[];autosize=1;strokeColor=none;fillColor=none;rotation=0;" vertex="1" parent="1">
          <mxGeometry x="1538" y="1142.0011431703008" width="60" height="30" as="geometry" />
        </mxCell>
        <mxCell id="2QBdlu2DVjJhpSTRe-wy-147" style="edgeStyle=orthogonalEdgeStyle;rounded=0;orthogonalLoop=1;jettySize=auto;html=1;entryX=0.5;entryY=1;entryDx=0;entryDy=0;endArrow=none;startFill=0;" edge="1" parent="1" source="2QBdlu2DVjJhpSTRe-wy-145" target="2QBdlu2DVjJhpSTRe-wy-146">
          <mxGeometry relative="1" as="geometry" />
        </mxCell>
        <mxCell id="2QBdlu2DVjJhpSTRe-wy-145" value="Malabarista" style="rounded=0;whiteSpace=wrap;html=1;" vertex="1" parent="1">
          <mxGeometry x="1759" y="1369.9996189432343" width="200" height="60" as="geometry" />
        </mxCell>
        <mxCell id="2QBdlu2DVjJhpSTRe-wy-148" style="edgeStyle=orthogonalEdgeStyle;rounded=0;orthogonalLoop=1;jettySize=auto;html=1;entryX=0.75;entryY=1;entryDx=0;entryDy=0;endArrow=none;startFill=0;" edge="1" parent="1" source="2QBdlu2DVjJhpSTRe-wy-146" target="i1IyLrbdU4EnLdiSXplg-362">
          <mxGeometry relative="1" as="geometry" />
        </mxCell>
        <mxCell id="2QBdlu2DVjJhpSTRe-wy-146" value="es_un" style="rhombus;whiteSpace=wrap;html=1;" vertex="1" parent="1">
          <mxGeometry x="1819" y="1251" width="80" height="80" as="geometry" />
        </mxCell>
        <mxCell id="2QBdlu2DVjJhpSTRe-wy-149" value="(1,1)" style="text;html=1;align=center;verticalAlign=middle;resizable=0;points=[];autosize=1;strokeColor=none;fillColor=none;" vertex="1" parent="1">
          <mxGeometry x="1520" y="1340" width="60" height="30" as="geometry" />
        </mxCell>
        <mxCell id="2QBdlu2DVjJhpSTRe-wy-150" value="(0,1)" style="text;html=1;align=center;verticalAlign=middle;resizable=0;points=[];autosize=1;strokeColor=none;fillColor=none;" vertex="1" parent="1">
          <mxGeometry x="1768" y="1190" width="60" height="30" as="geometry" />
        </mxCell>
        <mxCell id="2QBdlu2DVjJhpSTRe-wy-151" value="" style="curved=1;endArrow=none;html=1;rounded=0;startFill=0;entryX=0.312;entryY=-0.047;entryDx=0;entryDy=0;entryPerimeter=0;" edge="1" parent="1" target="2QBdlu2DVjJhpSTRe-wy-69">
          <mxGeometry width="50" height="50" relative="1" as="geometry">
            <mxPoint x="1859" y="1238" as="sourcePoint" />
            <mxPoint x="1789" y="1338" as="targetPoint" />
            <Array as="points">
              <mxPoint x="1900" y="1250" />
              <mxPoint x="1920" y="1340" />
              <mxPoint x="1849" y="1338" />
            </Array>
          </mxGeometry>
        </mxCell>
        <mxCell id="2QBdlu2DVjJhpSTRe-wy-152" value="" style="ellipse;whiteSpace=wrap;html=1;aspect=fixed;fillColor=light-dark(#FFFFFF,#FFFFFF);rotation=0;" vertex="1" parent="1">
          <mxGeometry x="1813" y="1335.0011431703006" width="8" height="8" as="geometry" />
        </mxCell>
        <mxCell id="2QBdlu2DVjJhpSTRe-wy-155" value="" style="group;rotation=-90;" vertex="1" connectable="0" parent="1">
          <mxGeometry x="1601" y="1166.0011431703006" width="8" height="28" as="geometry" />
        </mxCell>
        <mxCell id="2QBdlu2DVjJhpSTRe-wy-156" value="" style="ellipse;whiteSpace=wrap;html=1;aspect=fixed;fillColor=light-dark(#FFFFFF,transparent);rotation=-90;" vertex="1" parent="2QBdlu2DVjJhpSTRe-wy-155">
          <mxGeometry x="-10" y="10" width="8" height="8" as="geometry" />
        </mxCell>
        <mxCell id="2QBdlu2DVjJhpSTRe-wy-157" style="edgeStyle=orthogonalEdgeStyle;rounded=0;orthogonalLoop=1;jettySize=auto;html=1;endArrow=none;startFill=0;" edge="1" parent="2QBdlu2DVjJhpSTRe-wy-155">
          <mxGeometry relative="1" as="geometry">
            <mxPoint x="18" y="14" as="targetPoint" />
            <mxPoint x="-2" y="14" as="sourcePoint" />
          </mxGeometry>
        </mxCell>
        <mxCell id="2QBdlu2DVjJhpSTRe-wy-158" value="&lt;font style=&quot;font-size: 8px;&quot;&gt;fechaNac&lt;/font&gt;" style="text;html=1;align=center;verticalAlign=middle;resizable=0;points=[];autosize=1;strokeColor=none;fillColor=none;rotation=0;" vertex="1" parent="1">
          <mxGeometry x="1538" y="1163.0011431703008" width="60" height="30" as="geometry" />
        </mxCell>
        <mxCell id="2QBdlu2DVjJhpSTRe-wy-193" style="edgeStyle=orthogonalEdgeStyle;rounded=0;orthogonalLoop=1;jettySize=auto;html=1;entryX=0.5;entryY=0;entryDx=0;entryDy=0;endArrow=none;startFill=0;" edge="1" parent="1" source="2QBdlu2DVjJhpSTRe-wy-159" target="2QBdlu2DVjJhpSTRe-wy-192">
          <mxGeometry relative="1" as="geometry" />
        </mxCell>
        <mxCell id="2QBdlu2DVjJhpSTRe-wy-159" value="Evento" style="rounded=0;whiteSpace=wrap;html=1;" vertex="1" parent="1">
          <mxGeometry x="2239" y="1238.9996189432343" width="200" height="60" as="geometry" />
        </mxCell>
        <mxCell id="2QBdlu2DVjJhpSTRe-wy-160" value="dirige" style="rhombus;whiteSpace=wrap;html=1;" vertex="1" parent="1">
          <mxGeometry x="2040" y="1105" width="80" height="80" as="geometry" />
        </mxCell>
        <mxCell id="2QBdlu2DVjJhpSTRe-wy-161" value="" style="endArrow=none;html=1;rounded=0;exitX=1;exitY=0.75;exitDx=0;exitDy=0;entryX=0;entryY=0.5;entryDx=0;entryDy=0;" edge="1" parent="1" source="i1IyLrbdU4EnLdiSXplg-362" target="2QBdlu2DVjJhpSTRe-wy-6">
          <mxGeometry width="50" height="50" relative="1" as="geometry">
            <mxPoint x="2100" y="1160" as="sourcePoint" />
            <mxPoint x="2150" y="1110" as="targetPoint" />
          </mxGeometry>
        </mxCell>
        <mxCell id="2QBdlu2DVjJhpSTRe-wy-162" value="" style="endArrow=none;html=1;rounded=0;exitX=1;exitY=0.5;exitDx=0;exitDy=0;entryX=0;entryY=0.5;entryDx=0;entryDy=0;" edge="1" parent="1" source="i1IyLrbdU4EnLdiSXplg-362" target="2QBdlu2DVjJhpSTRe-wy-160">
          <mxGeometry width="50" height="50" relative="1" as="geometry">
            <mxPoint x="2100" y="1160" as="sourcePoint" />
            <mxPoint x="2150" y="1110" as="targetPoint" />
          </mxGeometry>
        </mxCell>
        <mxCell id="2QBdlu2DVjJhpSTRe-wy-164" value="" style="endArrow=none;html=1;rounded=0;entryX=0;entryY=0.5;entryDx=0;entryDy=0;exitX=1;exitY=0.5;exitDx=0;exitDy=0;" edge="1" parent="1" source="2QBdlu2DVjJhpSTRe-wy-160" target="2QBdlu2DVjJhpSTRe-wy-159">
          <mxGeometry width="50" height="50" relative="1" as="geometry">
            <mxPoint x="2100" y="1160" as="sourcePoint" />
            <mxPoint x="2150" y="1110" as="targetPoint" />
          </mxGeometry>
        </mxCell>
        <mxCell id="2QBdlu2DVjJhpSTRe-wy-165" value="" style="endArrow=none;html=1;rounded=0;exitX=1;exitY=0.5;exitDx=0;exitDy=0;entryX=0;entryY=0.5;entryDx=0;entryDy=0;" edge="1" parent="1" source="2QBdlu2DVjJhpSTRe-wy-6" target="2QBdlu2DVjJhpSTRe-wy-159">
          <mxGeometry width="50" height="50" relative="1" as="geometry">
            <mxPoint x="2100" y="1160" as="sourcePoint" />
            <mxPoint x="2150" y="1110" as="targetPoint" />
          </mxGeometry>
        </mxCell>
        <mxCell id="2QBdlu2DVjJhpSTRe-wy-166" value="(0,n)" style="text;html=1;align=center;verticalAlign=middle;resizable=0;points=[];autosize=1;strokeColor=none;fillColor=none;" vertex="1" parent="1">
          <mxGeometry x="1944" y="1276" width="60" height="30" as="geometry" />
        </mxCell>
        <mxCell id="2QBdlu2DVjJhpSTRe-wy-167" value="(1,1)" style="text;html=1;align=center;verticalAlign=middle;resizable=0;points=[];autosize=1;strokeColor=none;fillColor=none;" vertex="1" parent="1">
          <mxGeometry x="2160" y="1162" width="60" height="30" as="geometry" />
        </mxCell>
        <mxCell id="2QBdlu2DVjJhpSTRe-wy-168" value="(1,n)" style="text;html=1;align=center;verticalAlign=middle;resizable=0;points=[];autosize=1;strokeColor=none;fillColor=none;" vertex="1" parent="1">
          <mxGeometry x="2158" y="1287" width="60" height="30" as="geometry" />
        </mxCell>
        <mxCell id="2QBdlu2DVjJhpSTRe-wy-169" value="" style="group;rotation=-90;" vertex="1" connectable="0" parent="1">
          <mxGeometry x="2328" y="1215.0011431703006" width="8" height="28" as="geometry" />
        </mxCell>
        <mxCell id="2QBdlu2DVjJhpSTRe-wy-170" value="" style="ellipse;whiteSpace=wrap;html=1;aspect=fixed;fillColor=light-dark(#FFFFFF,#FFFFFF);rotation=-90;" vertex="1" parent="2QBdlu2DVjJhpSTRe-wy-169">
          <mxGeometry x="-10" y="10" width="8" height="8" as="geometry" />
        </mxCell>
        <mxCell id="2QBdlu2DVjJhpSTRe-wy-171" style="edgeStyle=orthogonalEdgeStyle;rounded=0;orthogonalLoop=1;jettySize=auto;html=1;endArrow=none;startFill=0;" edge="1" parent="2QBdlu2DVjJhpSTRe-wy-169">
          <mxGeometry relative="1" as="geometry">
            <mxPoint x="18" y="14" as="targetPoint" />
            <mxPoint x="-2" y="14" as="sourcePoint" />
          </mxGeometry>
        </mxCell>
        <mxCell id="2QBdlu2DVjJhpSTRe-wy-175" value="" style="group;rotation=0;" vertex="1" connectable="0" parent="1">
          <mxGeometry x="2326.5" y="1211.0011431703006" width="8" height="28" as="geometry" />
        </mxCell>
        <mxCell id="2QBdlu2DVjJhpSTRe-wy-176" value="" style="ellipse;whiteSpace=wrap;html=1;aspect=fixed;fillColor=light-dark(#FFFFFF,transparent);rotation=0;" vertex="1" parent="2QBdlu2DVjJhpSTRe-wy-175">
          <mxGeometry width="8" height="8" as="geometry" />
        </mxCell>
        <mxCell id="2QBdlu2DVjJhpSTRe-wy-177" style="edgeStyle=orthogonalEdgeStyle;rounded=0;orthogonalLoop=1;jettySize=auto;html=1;endArrow=none;startFill=0;" edge="1" parent="2QBdlu2DVjJhpSTRe-wy-175">
          <mxGeometry relative="1" as="geometry">
            <mxPoint x="4" y="28" as="targetPoint" />
            <mxPoint x="4" y="8" as="sourcePoint" />
          </mxGeometry>
        </mxCell>
        <mxCell id="2QBdlu2DVjJhpSTRe-wy-178" value="&lt;font style=&quot;font-size: 8px;&quot;&gt;nombre&lt;/font&gt;" style="text;html=1;align=center;verticalAlign=middle;resizable=0;points=[];autosize=1;strokeColor=none;fillColor=none;rotation=-60;" vertex="1" parent="1">
          <mxGeometry x="2309.5" y="1178.0011431703008" width="50" height="30" as="geometry" />
        </mxCell>
        <mxCell id="2QBdlu2DVjJhpSTRe-wy-179" value="" style="group;rotation=0;" vertex="1" connectable="0" parent="1">
          <mxGeometry x="2346.5" y="1211.0011431703006" width="8" height="28" as="geometry" />
        </mxCell>
        <mxCell id="2QBdlu2DVjJhpSTRe-wy-180" value="" style="ellipse;whiteSpace=wrap;html=1;aspect=fixed;fillColor=light-dark(#FFFFFF,transparent);rotation=0;" vertex="1" parent="2QBdlu2DVjJhpSTRe-wy-179">
          <mxGeometry width="8" height="8" as="geometry" />
        </mxCell>
        <mxCell id="2QBdlu2DVjJhpSTRe-wy-181" style="edgeStyle=orthogonalEdgeStyle;rounded=0;orthogonalLoop=1;jettySize=auto;html=1;endArrow=none;startFill=0;" edge="1" parent="2QBdlu2DVjJhpSTRe-wy-179">
          <mxGeometry relative="1" as="geometry">
            <mxPoint x="4" y="28" as="targetPoint" />
            <mxPoint x="4" y="8" as="sourcePoint" />
          </mxGeometry>
        </mxCell>
        <mxCell id="2QBdlu2DVjJhpSTRe-wy-185" value="&lt;font style=&quot;font-size: 8px;&quot;&gt;fecha&lt;/font&gt;" style="text;html=1;align=center;verticalAlign=middle;resizable=0;points=[];autosize=1;strokeColor=none;fillColor=none;rotation=-60;" vertex="1" parent="1">
          <mxGeometry x="2328.5" y="1181.0011431703008" width="50" height="30" as="geometry" />
        </mxCell>
        <mxCell id="2QBdlu2DVjJhpSTRe-wy-186" value="" style="endArrow=none;html=1;rounded=0;" edge="1" parent="1">
          <mxGeometry width="50" height="50" relative="1" as="geometry">
            <mxPoint x="2344" y="1229" as="sourcePoint" />
            <mxPoint x="2351" y="1229" as="targetPoint" />
          </mxGeometry>
        </mxCell>
        <mxCell id="2QBdlu2DVjJhpSTRe-wy-187" value="" style="group;rotation=90;" vertex="1" connectable="0" parent="1">
          <mxGeometry x="2449" y="1256.0011431703006" width="8" height="28" as="geometry" />
        </mxCell>
        <mxCell id="2QBdlu2DVjJhpSTRe-wy-188" value="" style="ellipse;whiteSpace=wrap;html=1;aspect=fixed;fillColor=light-dark(#FFFFFF,transparent);rotation=90;" vertex="1" parent="2QBdlu2DVjJhpSTRe-wy-187">
          <mxGeometry x="10" y="10" width="8" height="8" as="geometry" />
        </mxCell>
        <mxCell id="2QBdlu2DVjJhpSTRe-wy-189" style="edgeStyle=orthogonalEdgeStyle;rounded=0;orthogonalLoop=1;jettySize=auto;html=1;endArrow=none;startFill=0;" edge="1" parent="2QBdlu2DVjJhpSTRe-wy-187">
          <mxGeometry relative="1" as="geometry">
            <mxPoint x="-10" y="14" as="targetPoint" />
            <mxPoint x="10" y="14" as="sourcePoint" />
          </mxGeometry>
        </mxCell>
        <mxCell id="2QBdlu2DVjJhpSTRe-wy-190" value="&lt;font style=&quot;font-size: 8px;&quot;&gt;descripcion&lt;/font&gt;" style="text;html=1;align=center;verticalAlign=middle;resizable=0;points=[];autosize=1;strokeColor=none;fillColor=none;rotation=0;" vertex="1" parent="1">
          <mxGeometry x="2457" y="1253.0011431703008" width="80" height="30" as="geometry" />
        </mxCell>
        <mxCell id="2QBdlu2DVjJhpSTRe-wy-191" value="Tipo de evento" style="rounded=0;whiteSpace=wrap;html=1;" vertex="1" parent="1">
          <mxGeometry x="2240" y="1479.9996189432343" width="200" height="60" as="geometry" />
        </mxCell>
        <mxCell id="2QBdlu2DVjJhpSTRe-wy-195" style="edgeStyle=orthogonalEdgeStyle;rounded=0;orthogonalLoop=1;jettySize=auto;html=1;entryX=0.5;entryY=0;entryDx=0;entryDy=0;endArrow=none;startFill=0;" edge="1" parent="1" source="2QBdlu2DVjJhpSTRe-wy-192" target="2QBdlu2DVjJhpSTRe-wy-191">
          <mxGeometry relative="1" as="geometry" />
        </mxCell>
        <mxCell id="2QBdlu2DVjJhpSTRe-wy-192" value="tiene" style="rhombus;whiteSpace=wrap;html=1;" vertex="1" parent="1">
          <mxGeometry x="2299.5" y="1350" width="80" height="80" as="geometry" />
        </mxCell>
        <mxCell id="2QBdlu2DVjJhpSTRe-wy-196" value="" style="group;rotation=90;" vertex="1" connectable="0" parent="1">
          <mxGeometry x="2450" y="1496.5011431703006" width="8" height="28" as="geometry" />
        </mxCell>
        <mxCell id="2QBdlu2DVjJhpSTRe-wy-197" value="" style="ellipse;whiteSpace=wrap;html=1;aspect=fixed;fillColor=light-dark(#FFFFFF,#FFFFFF);rotation=90;" vertex="1" parent="2QBdlu2DVjJhpSTRe-wy-196">
          <mxGeometry x="10" y="10" width="8" height="8" as="geometry" />
        </mxCell>
        <mxCell id="2QBdlu2DVjJhpSTRe-wy-198" style="edgeStyle=orthogonalEdgeStyle;rounded=0;orthogonalLoop=1;jettySize=auto;html=1;endArrow=none;startFill=0;" edge="1" parent="2QBdlu2DVjJhpSTRe-wy-196">
          <mxGeometry relative="1" as="geometry">
            <mxPoint x="-10" y="14" as="targetPoint" />
            <mxPoint x="10" y="14" as="sourcePoint" />
          </mxGeometry>
        </mxCell>
        <mxCell id="2QBdlu2DVjJhpSTRe-wy-199" value="&lt;font style=&quot;font-size: 8px;&quot;&gt;nombre&lt;/font&gt;" style="text;html=1;align=center;verticalAlign=middle;resizable=0;points=[];autosize=1;strokeColor=none;fillColor=none;rotation=0;" vertex="1" parent="1">
          <mxGeometry x="2462" y="1492.5011431703008" width="50" height="30" as="geometry" />
        </mxCell>
        <mxCell id="2QBdlu2DVjJhpSTRe-wy-200" value="(1,1)" style="text;html=1;align=center;verticalAlign=middle;resizable=0;points=[];autosize=1;strokeColor=none;fillColor=none;rotation=90;" vertex="1" parent="1">
          <mxGeometry x="2321" y="1305" width="60" height="30" as="geometry" />
        </mxCell>
        <mxCell id="2QBdlu2DVjJhpSTRe-wy-201" value="(0,n)" style="text;html=1;align=center;verticalAlign=middle;resizable=0;points=[];autosize=1;strokeColor=none;fillColor=none;rotation=90;" vertex="1" parent="1">
          <mxGeometry x="2323.5" y="1440" width="60" height="30" as="geometry" />
        </mxCell>
      </root>
    </mxGraphModel>
  </diagram>
</mxfile>
